[img]http://i.imgur.com/BX74ESR.jpg[/img]

[code]

Paranormal.Activity.4.2012.Unrated.Directors.Cut.720p.BDRip.XViD.AC3-26k
 
http://www.imdb.com/title/tt2109184/

Plot:

It has been five years since the disappearance of Katie and Hunter, and a suburban family witness strange 
events in their neighborhood when a woman and a mysterious child move in.

Sources - VIDEO: Paranormal Activity 4 Unrated Directors Cut BluRay REMUX 1080p AVC DTS-HD MA5.1-CHD ..... thanks .... :P
          AUDIO: Paranormal Activity 4 Unrated Directors Cut BluRay REMUX 1080p AVC DTS-HD MA5.1-CHD ..... thanks .... :P

 
Format                                   : AVI
Format/Info                              : Audio Video Interleave
Format profile                           : OpenDML
File size                                : 2.80 GiB
Duration                                 : 1h 36mn
Overall bit rate                         : 4 149 Kbps
Writing library                          : VirtualDub build 32839/release

Video
ID                                       : 0
Format                                   : MPEG-4 Visual
Format profile                           : Advanced Simple@L5
Format settings, BVOP                    : 2
Format settings, QPel                    : No
Format settings, GMC                     : No warppoints
Format settings, Matrix                  : Default (H.263)
Codec ID                                 : XVID
Codec ID/Hint                            : XviD
Duration                                 : 1h 36mn
Bit rate                                 : 3 499 Kbps
Width                                    : 1 280 pixels
Height                                   : 720 pixels
Display aspect ratio                     : 16:9
Frame rate                               : 23.976 fps
Color space                              : YUV
Chroma subsampling                       : 4:2:0
Bit depth                                : 8 bits
Scan type                                : Progressive
Compression mode                         : Lossy
Bits/(Pixel*Frame)                       : 0.158
Stream size                              : 2.36 GiB (84%)
Writing library                          : XviD 1.2.1 (UTC 2008-12-04)

Audio
ID                                       : 1
Format                                   : AC-3
Format/Info                              : Audio Coding 3
Mode extension                           : CM (complete main)
Format settings, Endianness              : Big
Codec ID                                 : 2000
Duration                                 : 1h 36mn
Bit rate mode                            : Constant
Bit rate                                 : 640 Kbps
Channel(s)                               : 6 channels
Channel positions                        : Front: L C R, Side: L R, LFE
Sampling rate                            : 48.0 KHz
Bit depth                                : 16 bits
Compression mode                         : Lossy
Stream size                              : 443 MiB (15%)
Alignment                                : Split accross interleaves
Interleave, duration                     : 42 ms (1.00 video frame)
Interleave, preload duration             : 500 ms

Notes -

Took the BD made a script to make magic happen and this is the outcome.. enjoy

[/code]

Screens:

[img]http://i.imgur.com/ipeEQRD.jpg[/img]
[img]http://i.imgur.com/I8tN0YC.jpg[/img]
[img]http://i.imgur.com/EsvtTlT.jpg[/img]
[img]http://i.imgur.com/ivOzhnO.jpg[/img]
[img]http://i.imgur.com/eZZMDw8.jpg[/img]
[img]http://imageshack.us/a/img651/9193/42831475.png[/img]
[img]http://imageshack.us/a/img5/5166/76156753.png[/img]
[img]http://imageshack.us/a/img443/1697/69052271.png[/img]
[img]http://imageshack.us/a/img268/6751/24043245.png[/img]
[img]http://imageshack.us/a/img607/3269/19755045.png[/img]

Greetz:
SILENT-HD|CM8|RX|VISION|HDSCENE|xTriLL|ADTRG|CRYS|REMIXHD|HS|Tommiecook
BIDA|RX|REFILL|INSPiRAL|AXED|HOPE|Anonymous|GooN|NOIR|Blackjesus|Gabroo Punjab Deh
|BIGKATS|RESiSTANCE|TRiNiTY|LEGION

To all the people who have helped me, you know who you are

Anything to offer email us @: 26k@hushmail.me 